<svg xmlns="http://www.w3.org/2000/svg" viewBox="0 0 100 100" width="100" height="100">
  <rect x="25" y="20" width="50" height="40" rx="10" fill="#4FC3F7"/>
  <circle cx="38" cy="38" r="6" fill="white"/>
  <circle cx="62" cy="38" r="6" fill="white"/>
  <circle cx="38" cy="38" r="3" fill="#333"/>
  <circle cx="62" cy="38" r="3" fill="#333"/>
  <path d="M 38 50 Q 50 58 62 50" stroke="#333" stroke-width="2" fill="none" stroke-linecap="round"/>
  <line x1="50" y1="20" x2="50" y2="10" stroke="#4FC3F7" stroke-width="3"/>
  <circle cx="50" cy="8" r="4" fill="#FF7043"/>
  <rect x="30" y="62" width="40" height="25" rx="8" fill="#4FC3F7"/>
  <rect x="15" y="65" width="12" height="6" rx="3" fill="#4FC3F7"/>
  <rect x="73" y="65" width="12" height="6" rx="3" fill="#4FC3F7"/>
  <path d="M 45 70 C 45 67, 50 67, 50 72 C 50 67, 55 67, 55 70 C 55 75, 50 78, 50 78 C 50 78, 45 75, 45 70" fill="#FF7043"/>
</svg>
